<svg width="44" height="44" viewBox="0 0 44 44" fill="none" xmlns="http://www.w3.org/2000/svg">
<path fill-rule="evenodd" clip-rule="evenodd" d="M22.0396 0.164948C9.91341 0.164948 0.0803223 10.1639 0.0803223 22.4991C0.0803223 32.3671 6.37232 40.739 15.0974 43.6923C16.1949 43.899 16.5978 43.2078 16.5978 42.6179C16.5978 42.0853 16.5774 40.3259 16.568 38.4597C10.4589 39.8107 9.16978 35.8245 9.16978 35.8245C8.17087 33.2429 6.73159 32.5565 6.73159 32.5565C4.73923 31.1703 6.88178 31.1987 6.88178 31.1987C9.08687 31.3559 10.248 33.5003 10.248 33.5003C12.2065 36.9148 15.385 35.9277 16.6381 35.357C16.8352 33.9138 17.4043 32.9278 18.0323 32.3704C13.1549 31.8057 8.02759 29.8906 8.02759 21.3326C8.02759 18.8942 8.88541 16.9018 10.2901 15.3377C10.0621 14.7748 9.3105 12.5035 10.5029 9.42712C10.5029 9.42712 12.3469 8.82685 16.5432 11.7165C18.2949 11.2216 20.1734 10.9735 22.0396 10.965C23.9058 10.9735 25.7858 11.2216 27.5407 11.7165C31.732 8.82685 33.5734 9.42712 33.5734 9.42712C34.7687 12.5035 34.0167 14.7748 33.7887 15.3377C35.1967 16.9018 36.0487 18.8942 36.0487 21.3326C36.0487 29.9109 30.9116 31.7998 26.0218 32.3527C26.8094 33.0458 27.5112 34.405 27.5112 36.4887C27.5112 39.4767 27.4858 41.8819 27.4858 42.6179C27.4858 43.2122 27.881 43.9087 28.9941 43.6893C37.7145 40.7328 43.9985 32.3638 43.9985 22.4991C43.9985 10.1639 34.1669 0.164948 22.0396 0.164948Z" fill="#383838"/>
<path fill-rule="evenodd" clip-rule="evenodd" d="M8.39741 32.2321C8.34905 32.3434 8.17741 32.3764 8.02105 32.3002C7.86178 32.2273 7.77232 32.076 7.82396 31.9647C7.87123 31.8504 8.04323 31.819 8.20214 31.8948C8.36178 31.968 8.45269 32.1208 8.39741 32.2321Z" fill="#383838"/>
<path fill-rule="evenodd" clip-rule="evenodd" d="M9.28687 33.2411C9.18214 33.3398 8.97741 33.2939 8.8385 33.1379C8.69487 32.9822 8.66796 32.7739 8.77414 32.6737C8.88214 32.575 9.08068 32.6212 9.22468 32.7769C9.36832 32.9345 9.39632 33.1412 9.28687 33.2411Z" fill="#383838"/>
<path fill-rule="evenodd" clip-rule="evenodd" d="M10.1527 34.5274C10.0181 34.6225 9.79814 34.5333 9.66214 34.3347C9.52759 34.1361 9.52759 33.8979 9.66505 33.8025C9.80141 33.7071 10.0181 33.7929 10.156 33.99C10.2901 34.1916 10.2901 34.4301 10.1527 34.5274Z" fill="#383838"/>
<path fill-rule="evenodd" clip-rule="evenodd" d="M11.3389 35.7701C11.2185 35.9051 10.9621 35.8688 10.7745 35.6847C10.5825 35.5045 10.529 35.249 10.6498 35.114C10.7716 34.9786 11.0294 35.0167 11.2185 35.1994C11.409 35.3792 11.4672 35.6366 11.3389 35.7701Z" fill="#383838"/>
<path fill-rule="evenodd" clip-rule="evenodd" d="M12.9752 36.4917C12.9221 36.6666 12.6752 36.7461 12.4265 36.6718C12.1781 36.5952 12.0156 36.3903 12.0658 36.2136C12.1174 36.0375 12.3654 35.9547 12.616 36.0342C12.864 36.1104 13.0269 36.3138 12.9752 36.4917Z" fill="#383838"/>
<path fill-rule="evenodd" clip-rule="evenodd" d="M14.7723 36.6256C14.7785 36.8097 14.5676 36.9625 14.3065 36.9655C14.044 36.9717 13.8316 36.8227 13.8287 36.6415C13.8287 36.4554 14.0349 36.3042 14.2974 36.2997C14.5585 36.2945 14.7723 36.4425 14.7723 36.6256Z" fill="#383838"/>
<path fill-rule="evenodd" clip-rule="evenodd" d="M16.4447 36.336C16.476 36.5157 16.2945 36.7003 16.0352 36.7491C15.7803 36.7968 15.5443 36.6858 15.512 36.5076C15.4803 36.3234 15.665 36.1388 15.9196 36.0911C16.1792 36.0453 16.4116 36.1533 16.4447 36.336Z" fill="#383838"/>
</svg>
