<svg width="44" height="44" viewBox="0 0 44 44" fill="none" xmlns="http://www.w3.org/2000/svg">
<path fill-rule="evenodd" clip-rule="evenodd" d="M0 22C0 9.84974 9.84974 0 22 0C34.1503 0 44 9.84974 44 22C44 34.1503 34.1503 44 22 44C9.84974 44 0 34.1503 0 22ZM22.0011 10.2667C18.8145 10.2667 18.4146 10.2806 17.163 10.3376C15.9139 10.3948 15.0612 10.5925 14.3152 10.8827C13.5435 11.1824 12.8888 11.5833 12.2367 12.2357C11.584 12.8879 11.1831 13.5425 10.8824 14.314C10.5915 15.0603 10.3935 15.9131 10.3373 17.1618C10.2813 18.4134 10.2667 18.8135 10.2667 22.0001C10.2667 25.1867 10.2808 25.5854 10.3376 26.837C10.395 28.0861 10.5928 28.9387 10.8827 29.6848C11.1826 30.4565 11.5835 31.1111 12.2359 31.7633C12.8879 32.416 13.5425 32.8179 14.3137 33.1176C15.0603 33.4077 15.9131 33.6055 17.162 33.6627C18.4136 33.7196 18.8133 33.7336 21.9996 33.7336C25.1865 33.7336 25.5852 33.7196 26.8368 33.6627C28.0859 33.6055 28.9395 33.4077 29.686 33.1176C30.4575 32.8179 31.1111 32.416 31.7631 31.7633C32.4158 31.1111 32.8167 30.4565 33.1173 29.685C33.4058 28.9387 33.6038 28.0859 33.6624 26.8372C33.7187 25.5857 33.7333 25.1867 33.7333 22.0001C33.7333 18.8135 33.7187 18.4136 33.6624 17.162C33.6038 15.9129 33.4058 15.0603 33.1173 14.3142C32.8167 13.5425 32.4158 12.8879 31.7631 12.2357C31.1104 11.583 30.4577 11.1821 29.6853 10.8827C28.9373 10.5925 28.0842 10.3948 26.835 10.3376C25.5835 10.2806 25.185 10.2667 21.9974 10.2667H22.0011Z" fill="#383838"/>
<path fill-rule="evenodd" clip-rule="evenodd" d="M20.9485 12.3811C21.2609 12.3806 21.6095 12.3811 22.0011 12.3811C25.1339 12.3811 25.5052 12.3924 26.7424 12.4486C27.8864 12.5009 28.5073 12.6921 28.9209 12.8527C29.4685 13.0653 29.8588 13.3196 30.2693 13.7302C30.6799 14.1409 30.9342 14.532 31.1473 15.0796C31.3079 15.4927 31.4993 16.1136 31.5514 17.2576C31.6076 18.4945 31.6198 18.8661 31.6198 21.9974C31.6198 25.1288 31.6076 25.5004 31.5514 26.7373C31.4991 27.8813 31.3079 28.5022 31.1473 28.9153C30.9347 29.4628 30.6799 29.8527 30.2693 30.2632C29.8586 30.6738 29.4687 30.9281 28.9209 31.1407C28.5078 31.3021 27.8864 31.4927 26.7424 31.545C25.5055 31.6013 25.1339 31.6135 22.0011 31.6135C18.868 31.6135 18.4967 31.6013 17.2598 31.545C16.1158 31.4922 15.4949 31.3011 15.0811 31.1405C14.5335 30.9278 14.1424 30.6736 13.7317 30.2629C13.321 29.8522 13.0668 29.4621 12.8536 28.9143C12.693 28.5012 12.5016 27.8803 12.4496 26.7363C12.3934 25.4994 12.3821 25.1278 12.3821 21.9945C12.3821 18.8612 12.3934 18.4916 12.4496 17.2547C12.5019 16.1107 12.693 15.4898 12.8536 15.0762C13.0663 14.5286 13.321 14.1375 13.7317 13.7268C14.1424 13.3161 14.5335 13.0619 15.0811 12.8488C15.4947 12.6874 16.1158 12.4968 17.2598 12.4442C18.3422 12.3953 18.7617 12.3806 20.9485 12.3782V12.3811ZM28.2643 14.3294C27.487 14.3294 26.8563 14.9593 26.8563 15.7369C26.8563 16.5142 27.487 17.1449 28.2643 17.1449C29.0417 17.1449 29.6723 16.5142 29.6723 15.7369C29.6723 14.9596 29.0417 14.3294 28.2643 14.3294ZM22.0011 15.9745C18.6734 15.9745 15.9755 18.6725 15.9755 22.0001C15.9755 25.3278 18.6734 28.0245 22.0011 28.0245C25.3288 28.0245 28.0257 25.3278 28.0257 22.0001C28.0257 18.6725 25.3288 15.9745 22.0011 15.9745Z" fill="#383838"/>
<path fill-rule="evenodd" clip-rule="evenodd" d="M22.0011 18.089C24.161 18.089 25.9123 19.8399 25.9123 22.0001C25.9123 24.1601 24.161 25.9113 22.0011 25.9113C19.8409 25.9113 18.0899 24.1601 18.0899 22.0001C18.0899 19.8399 19.8409 18.089 22.0011 18.089Z" fill="#383838"/>
</svg>
