<svg width="44" height="44" viewBox="0 0 44 44" fill="none" xmlns="http://www.w3.org/2000/svg">
<path fill-rule="evenodd" clip-rule="evenodd" d="M0 22C0 9.84974 9.84974 0 22 0C34.1503 0 44 9.84974 44 22C44 34.1503 34.1503 44 22 44C9.84974 44 0 34.1503 0 22ZM15.5472 18.2214H10.5615V33.2013H15.5472V18.2214ZM15.8755 13.5875C15.8432 12.1187 14.7928 11 13.0873 11C11.3817 11 10.2667 12.1187 10.2667 13.5875C10.2667 15.0258 11.3488 16.1767 13.0226 16.1767H13.0544C14.7928 16.1767 15.8755 15.0258 15.8755 13.5875ZM33.5274 24.6122C33.5274 20.0111 31.0679 17.8696 27.787 17.8696C25.14 17.8696 23.9548 19.3236 23.2931 20.3435V18.2218H18.3068C18.3726 19.6274 18.3068 33.2017 18.3068 33.2017H23.2931V24.8356C23.2931 24.3879 23.3255 23.9413 23.4573 23.6208C23.8176 22.7264 24.6381 21.8004 26.0155 21.8004C27.8203 21.8004 28.5418 23.174 28.5418 25.187V33.2013H33.5272L33.5274 24.6122Z" fill="#383838"/>
</svg>
